<svg xmlns="http://www.w3.org/2000/svg" xmlns:xlink="http://www.w3.org/1999/xlink" width="200" zoomAndPan="magnify" viewBox="0 0 150 149.999998" height="200" preserveAspectRatio="xMidYMid meet" version="1.0"><defs><clipPath id="id1"><path d="M 14.589844 0 L 135.410156 0 C 136.367188 0 137.316406 0.09375 138.257812 0.28125 C 139.195312 0.46875 140.109375 0.742188 140.992188 1.109375 C 141.878906 1.476562 142.71875 1.925781 143.515625 2.457031 C 144.3125 2.992188 145.050781 3.59375 145.726562 4.273438 C 146.402344 4.949219 147.007812 5.6875 147.542969 6.484375 C 148.074219 7.28125 148.523438 8.121094 148.890625 9.007812 C 149.257812 9.890625 149.53125 10.804688 149.71875 11.742188 C 149.90625 12.683594 150 13.632812 150 14.589844 L 150 135.410156 C 150 136.367188 149.90625 137.316406 149.71875 138.257812 C 149.53125 139.195312 149.257812 140.109375 148.890625 140.992188 C 148.523438 141.878906 148.074219 142.71875 147.542969 143.515625 C 147.007812 144.3125 146.402344 145.050781 145.726562 145.726562 C 145.050781 146.402344 144.3125 147.007812 143.515625 147.542969 C 142.71875 148.074219 141.878906 148.523438 140.992188 148.890625 C 140.109375 149.257812 139.195312 149.53125 138.257812 149.71875 C 137.316406 149.90625 136.367188 150 135.410156 150 L 14.589844 150 C 13.632812 150 12.683594 149.90625 11.742188 149.71875 C 10.804688 149.53125 9.890625 149.257812 9.007812 148.890625 C 8.121094 148.523438 7.28125 148.074219 6.484375 147.542969 C 5.6875 147.007812 4.949219 146.40625 4.273438 145.726562 C 3.59375 145.050781 2.992188 144.3125 2.457031 143.515625 C 1.925781 142.71875 1.476562 141.878906 1.109375 140.992188 C 0.742188 140.109375 0.46875 139.195312 0.28125 138.257812 C 0.09375 137.316406 0 136.367188 0 135.410156 L 0 14.589844 C 0 13.632812 0.09375 12.683594 0.28125 11.742188 C 0.46875 10.804688 0.742188 9.890625 1.109375 9.007812 C 1.476562 8.121094 1.925781 7.28125 2.457031 6.484375 C 2.992188 5.6875 3.59375 4.949219 4.273438 4.273438 C 4.949219 3.59375 5.6875 2.992188 6.484375 2.457031 C 7.28125 1.925781 8.121094 1.476562 9.007812 1.109375 C 9.890625 0.742188 10.804688 0.46875 11.742188 0.28125 C 12.683594 0.09375 13.632812 0 14.589844 0 Z M 14.589844 0 " clip-rule="nonzero"/></clipPath><linearGradient x1="16.156318" gradientTransform="matrix(5.136986, 0, 0, 5.136986, -7.191779, -7.191786)" y1="1.246961" x2="15.843682" gradientUnits="userSpaceOnUse" y2="30.753041" id="id2"><stop stop-opacity="1" stop-color="rgb(3.49884%, 77.598572%, 97.599792%)" offset="0"/><stop stop-opacity="1" stop-color="rgb(3.492737%, 77.458191%, 97.57843%)" offset="0.0078125"/><stop stop-opacity="1" stop-color="rgb(3.479004%, 77.157593%, 97.532654%)" offset="0.0104846"/><stop stop-opacity="1" stop-color="rgb(3.471375%, 76.997375%, 97.50824%)" offset="0.015625"/><stop stop-opacity="1" stop-color="rgb(3.463745%, 76.835632%, 97.483826%)" offset="0.0234375"/><stop stop-opacity="1" stop-color="rgb(3.448486%, 76.513672%, 97.434998%)" offset="0.03125"/><stop stop-opacity="1" stop-color="rgb(3.434753%, 76.193237%, 97.387695%)" offset="0.0390625"/><stop stop-opacity="1" stop-color="rgb(3.419495%, 75.871277%, 97.338867%)" offset="0.046875"/><stop stop-opacity="1" stop-color="rgb(3.404236%, 75.549316%, 97.290039%)" offset="0.0546875"/><stop stop-opacity="1" stop-color="rgb(3.388977%, 75.227356%, 97.241211%)" offset="0.0625"/><stop stop-opacity="1" stop-color="rgb(3.375244%, 74.905396%, 97.192383%)" offset="0.0703125"/><stop stop-opacity="1" stop-color="rgb(3.359985%, 74.583435%, 97.145081%)" offset="0.078125"/><stop stop-opacity="1" stop-color="rgb(3.344727%, 74.261475%, 97.096252%)" offset="0.0859375"/><stop stop-opacity="1" stop-color="rgb(3.329468%, 73.94104%, 97.047424%)" offset="0.09375"/><stop stop-opacity="1" stop-color="rgb(3.315735%, 73.61908%, 96.998596%)" offset="0.101562"/><stop stop-opacity="1" stop-color="rgb(3.300476%, 73.297119%, 96.949768%)" offset="0.109375"/><stop stop-opacity="1" stop-color="rgb(3.285217%, 72.975159%, 96.90094%)" offset="0.117188"/><stop stop-opacity="1" stop-color="rgb(3.269958%, 72.653198%, 96.853638%)" offset="0.125"/><stop stop-opacity="1" stop-color="rgb(3.256226%, 72.331238%, 96.80481%)" offset="0.132812"/><stop stop-opacity="1" stop-color="rgb(3.240967%, 72.009277%, 96.755981%)" offset="0.140625"/><stop stop-opacity="1" stop-color="rgb(3.225708%, 71.688843%, 96.707153%)" offset="0.148438"/><stop stop-opacity="1" stop-color="rgb(3.210449%, 71.366882%, 96.658325%)" offset="0.15625"/><stop stop-opacity="1" stop-color="rgb(3.196716%, 71.044922%, 96.611023%)" offset="0.164063"/><stop stop-opacity="1" stop-color="rgb(3.181458%, 70.722961%, 96.562195%)" offset="0.171875"/><stop stop-opacity="1" stop-color="rgb(3.166199%, 70.401001%, 96.513367%)" offset="0.179688"/><stop stop-opacity="1" stop-color="rgb(3.15094%, 70.079041%, 96.464539%)" offset="0.1875"/><stop stop-opacity="1" stop-color="rgb(3.137207%, 69.75708%, 96.41571%)" offset="0.195312"/><stop stop-opacity="1" stop-color="rgb(3.121948%, 69.436646%, 96.368408%)" offset="0.203125"/><stop stop-opacity="1" stop-color="rgb(3.106689%, 69.114685%, 96.31958%)" offset="0.210938"/><stop stop-opacity="1" stop-color="rgb(3.091431%, 68.792725%, 96.270752%)" offset="0.21875"/><stop stop-opacity="1" stop-color="rgb(3.077698%, 68.470764%, 96.221924%)" offset="0.226563"/><stop stop-opacity="1" stop-color="rgb(3.062439%, 68.148804%, 96.173096%)" offset="0.234375"/><stop stop-opacity="1" stop-color="rgb(3.04718%, 67.826843%, 96.125793%)" offset="0.242188"/><stop stop-opacity="1" stop-color="rgb(3.031921%, 67.504883%, 96.076965%)" offset="0.25"/><stop stop-opacity="1" stop-color="rgb(3.018188%, 67.182922%, 96.028137%)" offset="0.257812"/><stop stop-opacity="1" stop-color="rgb(3.00293%, 66.862488%, 95.979309%)" offset="0.265625"/><stop stop-opacity="1" stop-color="rgb(2.987671%, 66.540527%, 95.930481%)" offset="0.273438"/><stop stop-opacity="1" stop-color="rgb(2.972412%, 66.218567%, 95.881653%)" offset="0.28125"/><stop stop-opacity="1" stop-color="rgb(2.958679%, 65.896606%, 95.834351%)" offset="0.289063"/><stop stop-opacity="1" stop-color="rgb(2.94342%, 65.574646%, 95.785522%)" offset="0.296875"/><stop stop-opacity="1" stop-color="rgb(2.928162%, 65.252686%, 95.736694%)" offset="0.304688"/><stop stop-opacity="1" stop-color="rgb(2.912903%, 64.930725%, 95.687866%)" offset="0.3125"/><stop stop-opacity="1" stop-color="rgb(2.89917%, 64.610291%, 95.639038%)" offset="0.320312"/><stop stop-opacity="1" stop-color="rgb(2.883911%, 64.28833%, 95.591736%)" offset="0.328125"/><stop stop-opacity="1" stop-color="rgb(2.868652%, 63.96637%, 95.542908%)" offset="0.335938"/><stop stop-opacity="1" stop-color="rgb(2.853394%, 63.644409%, 95.49408%)" offset="0.34375"/><stop stop-opacity="1" stop-color="rgb(2.839661%, 63.322449%, 95.445251%)" offset="0.351562"/><stop stop-opacity="1" stop-color="rgb(2.824402%, 63.000488%, 95.396423%)" offset="0.359375"/><stop stop-opacity="1" stop-color="rgb(2.809143%, 62.678528%, 95.349121%)" offset="0.367188"/><stop stop-opacity="1" stop-color="rgb(2.793884%, 62.358093%, 95.300293%)" offset="0.375"/><stop stop-opacity="1" stop-color="rgb(2.780151%, 62.036133%, 95.251465%)" offset="0.382813"/><stop stop-opacity="1" stop-color="rgb(2.764893%, 61.714172%, 95.202637%)" offset="0.390625"/><stop stop-opacity="1" stop-color="rgb(2.749634%, 61.392212%, 95.153809%)" offset="0.398438"/><stop stop-opacity="1" stop-color="rgb(2.734375%, 61.070251%, 95.106506%)" offset="0.40625"/><stop stop-opacity="1" stop-color="rgb(2.720642%, 60.748291%, 95.057678%)" offset="0.414063"/><stop stop-opacity="1" stop-color="rgb(2.705383%, 60.426331%, 95.00885%)" offset="0.421875"/><stop stop-opacity="1" stop-color="rgb(2.690125%, 60.105896%, 94.960022%)" offset="0.429688"/><stop stop-opacity="1" stop-color="rgb(2.674866%, 59.783936%, 94.911194%)" offset="0.4375"/><stop stop-opacity="1" stop-color="rgb(2.661133%, 59.461975%, 94.862366%)" offset="0.445313"/><stop stop-opacity="1" stop-color="rgb(2.645874%, 59.140015%, 94.815063%)" offset="0.453125"/><stop stop-opacity="1" stop-color="rgb(2.630615%, 58.818054%, 94.766235%)" offset="0.460938"/><stop stop-opacity="1" stop-color="rgb(2.615356%, 58.496094%, 94.717407%)" offset="0.46875"/><stop stop-opacity="1" stop-color="rgb(2.601624%, 58.174133%, 94.668579%)" offset="0.476563"/><stop stop-opacity="1" stop-color="rgb(2.586365%, 57.853699%, 94.619751%)" offset="0.484375"/><stop stop-opacity="1" stop-color="rgb(2.571106%, 57.531738%, 94.572449%)" offset="0.492188"/><stop stop-opacity="1" stop-color="rgb(2.555847%, 57.209778%, 94.523621%)" offset="0.5"/><stop stop-opacity="1" stop-color="rgb(2.542114%, 56.887817%, 94.474792%)" offset="0.507813"/><stop stop-opacity="1" stop-color="rgb(2.526855%, 56.565857%, 94.425964%)" offset="0.515625"/><stop stop-opacity="1" stop-color="rgb(2.511597%, 56.243896%, 94.377136%)" offset="0.523438"/><stop stop-opacity="1" stop-color="rgb(2.496338%, 55.921936%, 94.329834%)" offset="0.53125"/><stop stop-opacity="1" stop-color="rgb(2.482605%, 55.599976%, 94.281006%)" offset="0.539063"/><stop stop-opacity="1" stop-color="rgb(2.467346%, 55.279541%, 94.232178%)" offset="0.546875"/><stop stop-opacity="1" stop-color="rgb(2.452087%, 54.957581%, 94.18335%)" offset="0.554688"/><stop stop-opacity="1" stop-color="rgb(2.436829%, 54.63562%, 94.134521%)" offset="0.5625"/><stop stop-opacity="1" stop-color="rgb(2.423096%, 54.31366%, 94.087219%)" offset="0.570313"/><stop stop-opacity="1" stop-color="rgb(2.407837%, 53.991699%, 94.038391%)" offset="0.578125"/><stop stop-opacity="1" stop-color="rgb(2.392578%, 53.669739%, 93.989563%)" offset="0.585938"/><stop stop-opacity="1" stop-color="rgb(2.377319%, 53.347778%, 93.940735%)" offset="0.59375"/><stop stop-opacity="1" stop-color="rgb(2.363586%, 53.027344%, 93.891907%)" offset="0.601563"/><stop stop-opacity="1" stop-color="rgb(2.348328%, 52.705383%, 93.844604%)" offset="0.609375"/><stop stop-opacity="1" stop-color="rgb(2.333069%, 52.383423%, 93.795776%)" offset="0.617188"/><stop stop-opacity="1" stop-color="rgb(2.31781%, 52.061462%, 93.746948%)" offset="0.625"/><stop stop-opacity="1" stop-color="rgb(2.304077%, 51.739502%, 93.69812%)" offset="0.632813"/><stop stop-opacity="1" stop-color="rgb(2.288818%, 51.417542%, 93.649292%)" offset="0.640625"/><stop stop-opacity="1" stop-color="rgb(2.27356%, 51.095581%, 93.600464%)" offset="0.648438"/><stop stop-opacity="1" stop-color="rgb(2.258301%, 50.775146%, 93.553162%)" offset="0.65625"/><stop stop-opacity="1" stop-color="rgb(2.244568%, 50.453186%, 93.504333%)" offset="0.664063"/><stop stop-opacity="1" stop-color="rgb(2.229309%, 50.131226%, 93.455505%)" offset="0.671875"/><stop stop-opacity="1" stop-color="rgb(2.21405%, 49.809265%, 93.406677%)" offset="0.679688"/><stop stop-opacity="1" stop-color="rgb(2.198792%, 49.487305%, 93.357849%)" offset="0.6875"/><stop stop-opacity="1" stop-color="rgb(2.185059%, 49.165344%, 93.310547%)" offset="0.695312"/><stop stop-opacity="1" stop-color="rgb(2.1698%, 48.843384%, 93.261719%)" offset="0.703125"/><stop stop-opacity="1" stop-color="rgb(2.154541%, 48.522949%, 93.212891%)" offset="0.710938"/><stop stop-opacity="1" stop-color="rgb(2.139282%, 48.200989%, 93.164062%)" offset="0.71875"/><stop stop-opacity="1" stop-color="rgb(2.125549%, 47.879028%, 93.115234%)" offset="0.726563"/><stop stop-opacity="1" stop-color="rgb(2.110291%, 47.557068%, 93.067932%)" offset="0.734375"/><stop stop-opacity="1" stop-color="rgb(2.095032%, 47.235107%, 93.019104%)" offset="0.742188"/><stop stop-opacity="1" stop-color="rgb(2.079773%, 46.913147%, 92.970276%)" offset="0.75"/><stop stop-opacity="1" stop-color="rgb(2.06604%, 46.591187%, 92.921448%)" offset="0.757813"/><stop stop-opacity="1" stop-color="rgb(2.050781%, 46.270752%, 92.87262%)" offset="0.765625"/><stop stop-opacity="1" stop-color="rgb(2.035522%, 45.948792%, 92.825317%)" offset="0.773438"/><stop stop-opacity="1" stop-color="rgb(2.020264%, 45.626831%, 92.776489%)" offset="0.78125"/><stop stop-opacity="1" stop-color="rgb(2.006531%, 45.304871%, 92.727661%)" offset="0.789063"/><stop stop-opacity="1" stop-color="rgb(1.991272%, 44.98291%, 92.678833%)" offset="0.796875"/><stop stop-opacity="1" stop-color="rgb(1.976013%, 44.66095%, 92.630005%)" offset="0.804688"/><stop stop-opacity="1" stop-color="rgb(1.96228%, 44.338989%, 92.581177%)" offset="0.8125"/><stop stop-opacity="1" stop-color="rgb(1.947021%, 44.017029%, 92.533875%)" offset="0.820313"/><stop stop-opacity="1" stop-color="rgb(1.931763%, 43.696594%, 92.485046%)" offset="0.828125"/><stop stop-opacity="1" stop-color="rgb(1.916504%, 43.374634%, 92.436218%)" offset="0.835938"/><stop stop-opacity="1" stop-color="rgb(1.902771%, 43.052673%, 92.38739%)" offset="0.84375"/><stop stop-opacity="1" stop-color="rgb(1.887512%, 42.730713%, 92.338562%)" offset="0.851563"/><stop stop-opacity="1" stop-color="rgb(1.872253%, 42.408752%, 92.29126%)" offset="0.859375"/><stop stop-opacity="1" stop-color="rgb(1.856995%, 42.086792%, 92.242432%)" offset="0.867188"/><stop stop-opacity="1" stop-color="rgb(1.843262%, 41.764832%, 92.193604%)" offset="0.875"/><stop stop-opacity="1" stop-color="rgb(1.828003%, 41.444397%, 92.144775%)" offset="0.882812"/><stop stop-opacity="1" stop-color="rgb(1.812744%, 41.122437%, 92.095947%)" offset="0.890625"/><stop stop-opacity="1" stop-color="rgb(1.797485%, 40.800476%, 92.048645%)" offset="0.898438"/><stop stop-opacity="1" stop-color="rgb(1.783752%, 40.478516%, 91.999817%)" offset="0.90625"/><stop stop-opacity="1" stop-color="rgb(1.768494%, 40.156555%, 91.950989%)" offset="0.914063"/><stop stop-opacity="1" stop-color="rgb(1.753235%, 39.834595%, 91.902161%)" offset="0.921875"/><stop stop-opacity="1" stop-color="rgb(1.737976%, 39.512634%, 91.853333%)" offset="0.929688"/><stop stop-opacity="1" stop-color="rgb(1.724243%, 39.1922%, 91.80603%)" offset="0.9375"/><stop stop-opacity="1" stop-color="rgb(1.708984%, 38.870239%, 91.757202%)" offset="0.945313"/><stop stop-opacity="1" stop-color="rgb(1.693726%, 38.548279%, 91.708374%)" offset="0.953125"/><stop stop-opacity="1" stop-color="rgb(1.678467%, 38.226318%, 91.659546%)" offset="0.960938"/><stop stop-opacity="1" stop-color="rgb(1.664734%, 37.904358%, 91.610718%)" offset="0.96875"/><stop stop-opacity="1" stop-color="rgb(1.649475%, 37.582397%, 91.56189%)" offset="0.976563"/><stop stop-opacity="1" stop-color="rgb(1.634216%, 37.260437%, 91.514587%)" offset="0.984375"/><stop stop-opacity="1" stop-color="rgb(1.618958%, 36.940002%, 91.465759%)" offset="0.989515"/><stop stop-opacity="1" stop-color="rgb(1.612854%, 36.779785%, 91.441345%)" offset="0.992188"/><stop stop-opacity="1" stop-color="rgb(1.605225%, 36.639404%, 91.419983%)" offset="1"/></linearGradient></defs><g clip-path="url(#id1)"><rect x="-15" fill="url(#id2)" width="180" y="-15" height="179.999997"/></g><path fill="rgb(100%, 100%, 100%)" d="M 113.402344 107.417969 C 114.742188 106.847656 116.027344 106.171875 117.253906 105.390625 C 118.480469 104.609375 119.636719 103.730469 120.714844 102.757812 C 121.796875 101.785156 122.792969 100.726562 123.699219 99.589844 C 124.605469 98.453125 125.414062 97.246094 126.121094 95.976562 C 126.828125 94.703125 127.425781 93.382812 127.917969 92.011719 C 128.40625 90.640625 128.777344 89.238281 129.035156 87.804688 C 129.292969 86.375 129.429688 84.929688 129.445312 83.476562 C 129.464844 82.019531 129.363281 80.574219 129.140625 79.132812 C 128.917969 77.695312 128.582031 76.285156 128.125 74.902344 C 127.671875 73.523438 127.105469 72.1875 126.429688 70.898438 C 125.75 69.609375 124.972656 68.382812 124.09375 67.226562 C 123.214844 66.066406 122.246094 64.984375 121.191406 63.984375 C 120.132812 62.984375 119 62.078125 117.792969 61.269531 C 116.585938 60.457031 115.320312 59.75 113.992188 59.144531 C 112.667969 58.542969 111.304688 58.054688 109.898438 57.675781 C 108.492188 57.300781 107.066406 57.042969 105.617188 56.902344 C 105.507812 55.8125 105.351562 54.726562 105.140625 53.652344 C 104.929688 52.574219 104.671875 51.511719 104.359375 50.460938 C 104.050781 49.40625 103.6875 48.371094 103.28125 47.355469 C 102.871094 46.335938 102.414062 45.34375 101.914062 44.367188 C 101.410156 43.394531 100.863281 42.445312 100.269531 41.523438 C 99.675781 40.601562 99.039062 39.707031 98.363281 38.84375 C 97.683594 37.984375 96.96875 37.15625 96.210938 36.359375 C 95.457031 35.566406 94.664062 34.808594 93.835938 34.089844 C 93.007812 33.371094 92.148438 32.691406 91.257812 32.054688 C 90.363281 31.417969 89.445312 30.824219 88.496094 30.273438 C 87.546875 29.722656 86.574219 29.21875 85.578125 28.757812 C 84.582031 28.300781 83.566406 27.890625 82.53125 27.527344 C 81.496094 27.167969 80.449219 26.855469 79.382812 26.589844 C 78.316406 26.328125 77.242188 26.117188 76.160156 25.957031 C 75.074219 25.796875 73.984375 25.6875 72.890625 25.628906 C 71.792969 25.570312 70.699219 25.566406 69.601562 25.613281 C 68.507812 25.65625 67.417969 25.753906 66.332031 25.90625 C 65.242188 26.054688 64.167969 26.253906 63.101562 26.507812 C 62.03125 26.757812 60.980469 27.058594 59.941406 27.410156 C 58.902344 27.761719 57.882812 28.164062 56.882812 28.609375 C 55.878906 29.058594 54.902344 29.554688 53.949219 30.09375 C 52.996094 30.636719 52.070312 31.21875 51.171875 31.847656 C 50.273438 32.476562 49.40625 33.144531 48.570312 33.855469 C 47.734375 34.566406 46.933594 35.316406 46.171875 36.101562 C 45.40625 36.890625 44.679688 37.710938 43.996094 38.566406 C 43.308594 39.417969 42.664062 40.304688 42.0625 41.222656 C 41.457031 42.136719 40.902344 43.082031 40.386719 44.050781 C 39.875 45.019531 39.410156 46.011719 38.988281 47.023438 C 38.570312 48.035156 38.199219 49.066406 37.878906 50.117188 C 37.554688 51.164062 37.285156 52.226562 37.0625 53.300781 C 36.84375 54.375 36.671875 55.457031 36.554688 56.546875 C 36.4375 57.636719 36.371094 58.730469 36.355469 59.824219 C 36.351562 61.722656 36.511719 63.605469 36.828125 65.476562 C 35.660156 65.8125 34.527344 66.238281 33.425781 66.757812 C 32.328125 67.277344 31.277344 67.878906 30.277344 68.570312 C 29.277344 69.257812 28.339844 70.023438 27.460938 70.863281 C 26.585938 71.707031 25.78125 72.613281 25.050781 73.585938 C 24.320312 74.554688 23.675781 75.578125 23.113281 76.65625 C 22.546875 77.734375 22.074219 78.847656 21.691406 80 C 21.308594 81.15625 21.019531 82.332031 20.828125 83.53125 C 20.636719 84.730469 20.542969 85.9375 20.546875 87.152344 C 20.550781 88.367188 20.652344 89.574219 20.851562 90.773438 C 21.050781 91.972656 21.347656 93.148438 21.734375 94.296875 C 22.125 95.449219 22.605469 96.5625 23.175781 97.632812 C 23.746094 98.707031 24.398438 99.726562 25.136719 100.695312 C 25.871094 101.660156 26.679688 102.5625 27.5625 103.398438 C 28.445312 104.234375 29.386719 104.992188 30.390625 105.675781 C 31.398438 106.359375 32.449219 106.957031 33.550781 107.46875 C 34.65625 107.980469 35.789062 108.402344 36.960938 108.730469 C 37.351562 108.84375 37.753906 108.875 38.15625 108.832031 C 38.5625 108.785156 38.945312 108.664062 39.304688 108.464844 C 39.660156 108.269531 39.96875 108.011719 40.222656 107.691406 C 40.476562 107.371094 40.660156 107.015625 40.773438 106.625 C 40.890625 106.230469 40.921875 105.832031 40.878906 105.425781 C 40.832031 105.019531 40.710938 104.640625 40.515625 104.28125 C 40.320312 103.921875 40.0625 103.617188 39.742188 103.359375 C 39.425781 103.105469 39.070312 102.921875 38.675781 102.804688 C 37.777344 102.554688 36.910156 102.226562 36.066406 101.824219 C 35.226562 101.421875 34.421875 100.953125 33.660156 100.414062 C 32.902344 99.875 32.191406 99.277344 31.53125 98.613281 C 30.875 97.953125 30.277344 97.242188 29.738281 96.480469 C 29.203125 95.714844 28.734375 94.914062 28.335938 94.070312 C 27.9375 93.226562 27.613281 92.355469 27.363281 91.457031 C 27.113281 90.558594 26.941406 89.644531 26.847656 88.71875 C 26.753906 87.789062 26.738281 86.859375 26.804688 85.929688 C 26.871094 85 27.015625 84.082031 27.238281 83.175781 C 27.460938 82.269531 27.761719 81.390625 28.132812 80.535156 C 28.507812 79.679688 28.953125 78.863281 29.464844 78.085938 C 29.980469 77.308594 30.554688 76.578125 31.195312 75.898438 C 31.832031 75.21875 32.523438 74.597656 33.269531 74.035156 C 34.011719 73.472656 34.800781 72.980469 35.628906 72.554688 C 36.460938 72.128906 37.320312 71.773438 38.210938 71.496094 C 39.101562 71.214844 40.007812 71.015625 40.929688 70.890625 C 41.148438 70.859375 41.355469 70.804688 41.5625 70.730469 C 41.765625 70.652344 41.960938 70.558594 42.144531 70.441406 C 42.328125 70.324219 42.496094 70.1875 42.652344 70.035156 C 42.808594 69.882812 42.945312 69.714844 43.0625 69.535156 C 43.183594 69.351562 43.28125 69.160156 43.363281 68.957031 C 43.441406 68.753906 43.496094 68.542969 43.53125 68.328125 C 43.566406 68.113281 43.578125 67.898438 43.566406 67.679688 C 43.554688 67.460938 43.519531 67.246094 43.464844 67.039062 C 42.832031 64.683594 42.515625 62.285156 42.519531 59.847656 C 42.535156 58.921875 42.597656 58.003906 42.707031 57.085938 C 42.8125 56.167969 42.964844 55.257812 43.160156 54.355469 C 43.351562 53.453125 43.59375 52.5625 43.875 51.683594 C 44.15625 50.804688 44.480469 49.941406 44.84375 49.09375 C 45.210938 48.246094 45.613281 47.417969 46.0625 46.609375 C 46.507812 45.800781 46.992188 45.015625 47.511719 44.253906 C 48.035156 43.492188 48.59375 42.757812 49.1875 42.050781 C 49.777344 41.34375 50.40625 40.664062 51.0625 40.019531 C 51.722656 39.371094 52.410156 38.757812 53.128906 38.179688 C 53.847656 37.597656 54.59375 37.054688 55.363281 36.546875 C 56.136719 36.039062 56.929688 35.570312 57.746094 35.140625 C 58.5625 34.710938 59.398438 34.320312 60.253906 33.972656 C 61.109375 33.621094 61.980469 33.316406 62.863281 33.050781 C 63.746094 32.785156 64.644531 32.566406 65.550781 32.386719 C 66.453125 32.207031 67.367188 32.074219 68.285156 31.984375 C 69.207031 31.894531 70.125 31.851562 71.050781 31.851562 C 71.972656 31.851562 72.894531 31.894531 73.8125 31.984375 C 74.730469 32.074219 75.644531 32.207031 76.550781 32.386719 C 77.457031 32.566406 78.351562 32.785156 79.234375 33.050781 C 80.121094 33.316406 80.988281 33.621094 81.84375 33.972656 C 82.699219 34.320312 83.535156 34.710938 84.351562 35.140625 C 85.167969 35.570312 85.960938 36.039062 86.734375 36.546875 C 87.503906 37.054688 88.25 37.597656 88.96875 38.179688 C 89.6875 38.757812 90.375 39.371094 91.035156 40.019531 C 91.695312 40.664062 92.320312 41.34375 92.914062 42.050781 C 93.507812 42.757812 94.066406 43.492188 94.585938 44.253906 C 95.109375 45.015625 95.59375 45.800781 96.039062 46.609375 C 96.484375 47.417969 96.890625 48.246094 97.253906 49.09375 C 97.621094 49.941406 97.945312 50.804688 98.226562 51.683594 C 98.507812 52.5625 98.746094 53.453125 98.941406 54.355469 C 99.136719 55.257812 99.289062 56.167969 99.394531 57.085938 C 99.5 58.003906 99.5625 58.921875 99.582031 59.847656 C 99.582031 60.253906 99.660156 60.648438 99.816406 61.023438 C 99.972656 61.402344 100.195312 61.734375 100.484375 62.023438 C 100.773438 62.3125 101.105469 62.535156 101.484375 62.695312 C 101.859375 62.851562 102.253906 62.929688 102.664062 62.929688 C 103.828125 62.910156 104.984375 62.988281 106.132812 63.167969 C 107.28125 63.347656 108.410156 63.625 109.511719 64 C 110.613281 64.375 111.675781 64.839844 112.695312 65.398438 C 113.71875 65.957031 114.683594 66.597656 115.59375 67.324219 C 116.503906 68.046875 117.347656 68.84375 118.121094 69.714844 C 118.894531 70.582031 119.585938 71.511719 120.199219 72.503906 C 120.8125 73.492188 121.335938 74.527344 121.773438 75.605469 C 122.207031 76.683594 122.546875 77.792969 122.789062 78.933594 C 123.03125 80.070312 123.175781 81.222656 123.21875 82.382812 C 123.265625 83.546875 123.210938 84.707031 123.054688 85.859375 C 122.898438 87.011719 122.644531 88.144531 122.296875 89.253906 C 121.945312 90.363281 121.503906 91.433594 120.964844 92.46875 C 120.429688 93.503906 119.8125 94.480469 119.105469 95.410156 C 118.402344 96.335938 117.625 97.195312 116.769531 97.984375 C 115.917969 98.777344 115.003906 99.492188 114.027344 100.125 C 113.050781 100.761719 112.027344 101.304688 110.957031 101.765625 C 110.601562 101.9375 110.289062 102.171875 110.019531 102.464844 C 109.753906 102.757812 109.550781 103.09375 109.410156 103.464844 C 109.273438 103.839844 109.210938 104.222656 109.21875 104.621094 C 109.230469 105.019531 109.316406 105.398438 109.472656 105.765625 C 109.632812 106.128906 109.851562 106.453125 110.136719 106.730469 C 110.417969 107.011719 110.742188 107.226562 111.109375 107.378906 C 111.476562 107.535156 111.859375 107.613281 112.257812 107.621094 C 112.652344 107.625 113.039062 107.558594 113.410156 107.414062 Z M 113.402344 107.417969 " fill-opacity="1" fill-rule="evenodd"/><path fill="rgb(100%, 100%, 100%)" d="M 72.179688 36.714844 C 70.78125 36.707031 69.394531 36.816406 68.015625 37.039062 C 66.632812 37.261719 65.28125 37.59375 63.957031 38.035156 C 62.632812 38.480469 61.351562 39.027344 60.113281 39.679688 C 58.878906 40.332031 57.703125 41.082031 56.589844 41.925781 C 55.476562 42.769531 54.441406 43.699219 53.480469 44.714844 C 52.519531 45.730469 51.644531 46.816406 50.863281 47.972656 C 50.078125 49.128906 49.394531 50.34375 48.808594 51.613281 C 48.222656 52.878906 47.746094 54.1875 47.375 55.535156 C 47.265625 55.929688 47.242188 56.332031 47.292969 56.734375 C 47.347656 57.140625 47.472656 57.519531 47.679688 57.875 C 47.882812 58.230469 48.148438 58.53125 48.46875 58.78125 C 48.792969 59.03125 49.152344 59.207031 49.546875 59.3125 C 49.945312 59.421875 50.34375 59.445312 50.75 59.394531 C 51.15625 59.339844 51.535156 59.214844 51.886719 59.007812 C 52.242188 58.804688 52.542969 58.539062 52.792969 58.21875 C 53.042969 57.894531 53.222656 57.535156 53.328125 57.140625 C 53.609375 56.117188 53.976562 55.125 54.421875 54.160156 C 54.867188 53.199219 55.386719 52.277344 55.984375 51.402344 C 56.578125 50.523438 57.242188 49.699219 57.972656 48.929688 C 58.707031 48.164062 59.492188 47.457031 60.339844 46.816406 C 61.1875 46.179688 62.078125 45.609375 63.015625 45.117188 C 63.957031 44.621094 64.929688 44.207031 65.933594 43.875 C 66.941406 43.539062 67.96875 43.289062 69.015625 43.121094 C 70.066406 42.953125 71.117188 42.871094 72.179688 42.878906 C 72.589844 42.878906 72.980469 42.800781 73.359375 42.644531 C 73.738281 42.488281 74.070312 42.265625 74.359375 41.976562 C 74.648438 41.6875 74.871094 41.351562 75.027344 40.976562 C 75.183594 40.597656 75.261719 40.203125 75.261719 39.796875 C 75.261719 39.386719 75.183594 38.996094 75.027344 38.617188 C 74.871094 38.238281 74.648438 37.90625 74.359375 37.617188 C 74.070312 37.328125 73.738281 37.105469 73.359375 36.949219 C 72.980469 36.792969 72.589844 36.714844 72.179688 36.714844 Z M 72.179688 36.714844 " fill-opacity="1" fill-rule="evenodd"/><path fill="rgb(100%, 100%, 100%)" d="M 52.722656 110.671875 L 52.722656 104.734375 L 48.765625 110.671875 Z M 53.234375 92.832031 L 40.4375 112.042969 C 40.121094 112.515625 39.949219 113.035156 39.921875 113.605469 C 39.894531 114.171875 40.015625 114.707031 40.285156 115.210938 C 40.554688 115.710938 40.933594 116.105469 41.421875 116.398438 C 41.910156 116.691406 42.4375 116.835938 43.007812 116.835938 L 52.722656 116.835938 L 52.722656 120.148438 C 52.722656 120.558594 52.800781 120.949219 52.957031 121.328125 C 53.113281 121.707031 53.335938 122.039062 53.625 122.328125 C 53.914062 122.617188 54.246094 122.839844 54.625 122.996094 C 55 123.152344 55.394531 123.230469 55.804688 123.230469 C 56.210938 123.230469 56.605469 123.152344 56.984375 122.996094 C 57.359375 122.839844 57.695312 122.617188 57.984375 122.328125 C 58.273438 122.039062 58.496094 121.707031 58.652344 121.328125 C 58.808594 120.949219 58.886719 120.558594 58.886719 120.148438 L 58.886719 116.835938 L 60.617188 116.835938 C 61.023438 116.835938 61.417969 116.757812 61.796875 116.601562 C 62.171875 116.445312 62.507812 116.222656 62.796875 115.933594 C 63.085938 115.644531 63.308594 115.308594 63.464844 114.933594 C 63.621094 114.554688 63.699219 114.164062 63.699219 113.753906 C 63.699219 113.34375 63.621094 112.953125 63.464844 112.574219 C 63.308594 112.195312 63.085938 111.863281 62.796875 111.574219 C 62.507812 111.285156 62.171875 111.0625 61.796875 110.90625 C 61.417969 110.75 61.023438 110.671875 60.617188 110.671875 L 58.90625 110.671875 L 58.90625 94.554688 C 58.910156 94.222656 58.859375 93.902344 58.757812 93.585938 C 58.652344 93.269531 58.503906 92.976562 58.308594 92.710938 C 58.109375 92.441406 57.878906 92.210938 57.605469 92.019531 C 57.335938 91.828125 57.042969 91.683594 56.722656 91.585938 C 56.40625 91.488281 56.082031 91.445312 55.75 91.453125 C 55.417969 91.460938 55.097656 91.519531 54.78125 91.632812 C 54.46875 91.746094 54.183594 91.902344 53.921875 92.109375 C 53.660156 92.3125 53.4375 92.554688 53.253906 92.832031 Z M 53.234375 92.832031 " fill-opacity="1" fill-rule="evenodd"/><path fill="rgb(100%, 100%, 100%)" d="M 99.328125 110.671875 L 99.328125 104.417969 L 95.164062 110.671875 Z M 100.070312 92.546875 C 99.882812 92.597656 86.835938 112.042969 86.835938 112.042969 C 86.519531 112.515625 86.347656 113.035156 86.320312 113.605469 C 86.292969 114.171875 86.414062 114.707031 86.683594 115.210938 C 86.953125 115.710938 87.328125 116.105469 87.820312 116.398438 C 88.308594 116.691406 88.835938 116.835938 89.402344 116.835938 L 99.328125 116.835938 L 99.328125 120.148438 C 99.328125 120.558594 99.40625 120.949219 99.5625 121.328125 C 99.71875 121.707031 99.941406 122.039062 100.230469 122.328125 C 100.519531 122.617188 100.855469 122.839844 101.230469 122.996094 C 101.609375 123.152344 102.003906 123.230469 102.410156 123.230469 C 102.820312 123.230469 103.210938 123.152344 103.589844 122.996094 C 103.96875 122.839844 104.300781 122.617188 104.589844 122.328125 C 104.878906 122.039062 105.101562 121.707031 105.257812 121.328125 C 105.414062 120.949219 105.492188 120.558594 105.492188 120.148438 L 105.492188 116.835938 L 106.992188 116.835938 C 107.402344 116.835938 107.796875 116.757812 108.171875 116.601562 C 108.550781 116.445312 108.882812 116.222656 109.171875 115.933594 C 109.460938 115.644531 109.683594 115.308594 109.839844 114.933594 C 109.996094 114.554688 110.074219 114.164062 110.074219 113.753906 C 110.074219 113.34375 109.996094 112.953125 109.839844 112.574219 C 109.683594 112.195312 109.460938 111.863281 109.171875 111.574219 C 108.882812 111.285156 108.550781 111.0625 108.171875 110.90625 C 107.796875 110.75 107.402344 110.671875 106.992188 110.671875 L 105.492188 110.671875 L 105.492188 94.554688 C 105.492188 94.242188 105.445312 93.933594 105.351562 93.632812 C 105.257812 93.332031 105.121094 93.050781 104.941406 92.792969 C 104.761719 92.535156 104.546875 92.308594 104.296875 92.113281 C 104.050781 91.921875 103.777344 91.769531 103.480469 91.660156 C 103.183594 91.550781 102.878906 91.488281 102.566406 91.472656 C 102.25 91.457031 101.941406 91.488281 101.636719 91.566406 C 101.332031 91.648438 101.042969 91.769531 100.777344 91.9375 C 100.507812 92.105469 100.273438 92.308594 100.070312 92.546875 Z M 100.070312 92.546875 " fill-opacity="1" fill-rule="evenodd"/><path fill="rgb(100%, 100%, 100%)" d="M 78.320312 97.75 L 78.320312 116.949219 C 78.320312 117.027344 78.277344 117.066406 78.199219 117.066406 L 71.800781 117.066406 C 71.722656 117.066406 71.679688 117.027344 71.679688 116.949219 L 71.679688 97.75 C 71.683594 97.675781 71.722656 97.636719 71.800781 97.640625 L 78.199219 97.640625 C 78.277344 97.636719 78.316406 97.675781 78.320312 97.75 Z M 84.484375 97.75 C 84.484375 97.339844 84.441406 96.929688 84.359375 96.527344 C 84.28125 96.121094 84.160156 95.730469 84.003906 95.347656 C 83.84375 94.96875 83.652344 94.605469 83.421875 94.265625 C 83.191406 93.921875 82.933594 93.605469 82.640625 93.3125 C 82.347656 93.019531 82.03125 92.761719 81.6875 92.53125 C 81.347656 92.304688 80.984375 92.109375 80.601562 91.953125 C 80.222656 91.792969 79.828125 91.675781 79.425781 91.59375 C 79.019531 91.515625 78.613281 91.472656 78.199219 91.472656 L 71.800781 91.472656 C 71.386719 91.472656 70.980469 91.515625 70.574219 91.59375 C 70.171875 91.675781 69.777344 91.792969 69.398438 91.953125 C 69.015625 92.109375 68.652344 92.304688 68.3125 92.53125 C 67.96875 92.761719 67.652344 93.019531 67.359375 93.3125 C 67.066406 93.605469 66.808594 93.921875 66.578125 94.265625 C 66.347656 94.605469 66.15625 94.96875 65.996094 95.347656 C 65.839844 95.730469 65.71875 96.121094 65.640625 96.527344 C 65.558594 96.929688 65.515625 97.339844 65.515625 97.75 L 65.515625 116.949219 C 65.515625 117.359375 65.558594 117.769531 65.640625 118.175781 C 65.71875 118.578125 65.839844 118.972656 65.996094 119.351562 C 66.15625 119.734375 66.347656 120.09375 66.578125 120.4375 C 66.808594 120.78125 67.066406 121.097656 67.359375 121.390625 C 67.648438 121.679688 67.96875 121.941406 68.308594 122.171875 C 68.652344 122.398438 69.015625 122.59375 69.394531 122.75 C 69.777344 122.910156 70.167969 123.027344 70.574219 123.109375 C 70.980469 123.191406 71.386719 123.230469 71.800781 123.230469 L 78.199219 123.230469 C 78.613281 123.230469 79.019531 123.191406 79.425781 123.109375 C 79.832031 123.027344 80.222656 122.910156 80.605469 122.75 C 80.984375 122.59375 81.347656 122.398438 81.691406 122.171875 C 82.03125 121.941406 82.351562 121.679688 82.640625 121.390625 C 82.933594 121.097656 83.191406 120.78125 83.421875 120.4375 C 83.652344 120.09375 83.84375 119.734375 84.003906 119.351562 C 84.160156 118.972656 84.28125 118.578125 84.359375 118.175781 C 84.441406 117.769531 84.484375 117.359375 84.484375 116.949219 Z M 84.484375 97.75 " fill-opacity="1" fill-rule="evenodd"/></svg>